<?xml version="1.0" encoding="iso-8859-1"?>
<!-- Uploaded to: SVG Repo, www.svgrepo.com, Generator: SVG Repo Mixer Tools -->
<svg height="800px" width="800px" version="1.1" id="Layer_1" xmlns="http://www.w3.org/2000/svg" xmlns:xlink="http://www.w3.org/1999/xlink" 
	 viewBox="0 0 511.999 511.999" xml:space="preserve">
<g>
	<path style="fill:#ABB8B9;" d="M469.334,37.332H42.668c-17.599,0-32,14.401-32,32v277.332c0,17.599,14.401,32,32,32h150.451
		h125.764h150.451c17.599,0,31.998-14.401,31.998-32V69.333C501.333,51.734,486.934,37.332,469.334,37.332z"/>
	<g>
		<polygon style="fill:#FCD051;" points="318.883,378.665 193.119,378.665 182.45,431.999 329.551,431.999 		"/>
		<path style="fill:#FCD051;" d="M329.551,431.999h-147.1h-11.783c-11.732,0-21.333,9.596-21.333,21.333v21.335h213.333v-21.335
			c0-11.736-9.601-21.333-21.335-21.333H329.551z"/>
	</g>
</g>
<g>
	<path style="fill:#000003;" d="M469.334,26.665H42.668C19.141,26.665,0,45.806,0,69.333v277.332
		c0,23.527,19.141,42.668,42.668,42.668h137.439l-6.402,31.998h-3.038c-17.645,0-32,14.355-32,32v21.335
		c0,5.892,4.776,10.668,10.667,10.668h213.333c5.891,0,10.667-4.776,10.667-10.668v-21.335c0-17.645-14.356-32-32.002-32h-3.037
		l-6.401-31.998h137.439c23.526,0,42.666-19.141,42.666-42.668V69.333C512,45.806,492.859,26.665,469.334,26.665z M352,453.331
		v10.667H160.002v-10.667c0-5.882,4.783-10.665,10.665-10.665h11.783h147.1c0.009,0,0.015,0,0.022,0h11.76
		C347.214,442.666,352,447.449,352,453.331z M316.539,421.331H195.463l6.4-31.998h108.274L316.539,421.331z M490.665,346.665
		c0,11.763-9.57,21.333-21.331,21.333H318.883H193.119H42.668c-11.763,0-21.333-9.57-21.333-21.333V69.333
		C21.335,57.57,30.905,48,42.668,48h426.666c11.761,0,21.331,9.57,21.331,21.333L490.665,346.665L490.665,346.665z"/>
	<path style="fill:#000003;" d="M53.333,271.117c-5.892,0-10.667,4.778-10.667,10.668v54.214c0,5.892,4.776,10.667,10.667,10.667
		s10.667-4.776,10.667-10.667v-54.214C64.001,275.895,59.226,271.117,53.333,271.117z"/>
	<path style="fill:#000003;" d="M53.329,261.806c5.892,0,10.667-4.776,10.667-10.667v-0.252c0-5.89-4.776-10.667-10.667-10.667
		c-5.891,0-10.667,4.778-10.667,10.667v0.252C42.661,257.03,47.438,261.806,53.329,261.806z"/>
	<path style="fill:#000003;" d="M458.663,154.192c-5.891,0-10.668,4.775-10.668,10.667v0.252c0,5.89,4.777,10.667,10.668,10.667
		c5.892,0,10.667-4.778,10.667-10.667v-0.252C469.33,158.966,464.554,154.192,458.663,154.192z"/>
	<path style="fill:#000003;" d="M458.667,69.331c-5.892,0-10.667,4.776-10.667,10.667v54.214c0,5.89,4.776,10.668,10.667,10.668
		s10.668-4.778,10.668-10.667V79.998C469.334,74.107,464.558,69.331,458.667,69.331z"/>
	<path style="fill:#000003;" d="M362.979,159.444c-11.536-11.474-27.698-17.293-48.039-17.293h-32.239
		c-5.306,0-9.806,3.9-10.559,9.153l-15.838,110.361c-0.439,3.06,0.472,6.163,2.498,8.501c2.026,2.337,4.967,3.681,8.061,3.681
		h40.371c25.92,0,45.642-8.184,58.617-24.321c11.328-14.086,16.28-31.815,14.321-51.267
		C378.56,182.246,372.775,169.185,362.979,159.444z M349.225,236.156c-8.848,11.005-22.583,16.355-41.989,16.355h-28.064
		l12.776-89.026h22.994c14.703,0,25.495,3.625,32.995,11.087c6.288,6.252,9.89,14.701,11.01,25.825
		C360.332,214.161,356.972,226.525,349.225,236.156z"/>
	<path style="fill:#000003;" d="M237.955,142.258c-5.832-0.827-11.233,3.227-12.064,9.059l-6.544,46.012h-57.038l6.17-42.995
		c0.836-5.832-3.212-11.236-9.043-12.073c-5.823-0.837-11.238,3.213-12.075,9.045l-15.838,110.361
		c-0.837,5.832,3.213,11.236,9.044,12.073c0.513,0.073,1.023,0.11,1.529,0.11c5.221,0,9.783-3.836,10.546-9.155l6.605-46.03h57.066
		l-6.118,43.013c-0.83,5.832,3.226,11.234,9.059,12.064c0.51,0.073,1.016,0.109,1.516,0.109c5.225,0,9.791-3.845,10.548-9.168
		l15.696-110.361C247.845,148.489,243.789,143.087,237.955,142.258z"/>
</g>
</svg>