<?xml version="1.0" encoding="iso-8859-1"?>
<!-- Uploaded to: SVG Repo, www.svgrepo.com, Generator: SVG Repo Mixer Tools -->
<svg height="800px" width="800px" version="1.1" id="Layer_1" xmlns="http://www.w3.org/2000/svg" xmlns:xlink="http://www.w3.org/1999/xlink" 
	 viewBox="0 0 512 512" xml:space="preserve">
<path style="fill:#27467A;" d="M441.951,151.201h-33.305l33.305,283.089l33.305-22.203V184.505
	C475.255,166.188,460.268,151.201,441.951,151.201z"/>
<path style="fill:#367596;" d="M408.646,151.201H70.05c-18.318,0-33.305,14.987-33.305,33.305v227.581l405.206,22.203V184.505
	C441.951,166.188,426.964,151.201,408.646,151.201z"/>
<path style="fill:#A7CBCF;" d="M475.255,434.289L441.951,512h33.305c18.318,0,33.305-14.987,33.305-33.305v-22.203L475.255,434.289z
	"/>
<path style="fill:#B7D9DD;" d="M475.255,478.696v-44.406L3.44,456.493v22.203C3.44,497.013,18.427,512,36.745,512h405.206
	C460.268,512,475.255,497.013,475.255,478.696z"/>
<path style="fill:#88ACB5;" d="M247.674,445.391v33.305c0,4.599,3.728,8.326,8.326,8.326c4.598,0,8.326-3.727,8.326-8.326v-33.305
	H247.674z"/>
<polygon style="fill:#B7D9DD;" points="475.255,412.086 441.951,412.086 425.866,434.289 475.255,456.493 508.56,456.493 "/>
<polygon style="fill:#D0FBFD;" points="36.745,412.086 3.44,456.493 475.255,456.493 441.951,412.086 "/>
<path style="fill:#25BBCC;" d="M334.844,93.567h-14.243v179.011h14.243c24.815-21.884,40.497-53.896,40.497-89.505
	S359.659,115.453,334.844,93.567z"/>
<path style="fill:#50D1DD;" d="M320.602,104.344h-53.337v157.456h53.337c13.335-21.027,21.435-48.588,21.435-78.729
	C342.037,152.934,333.936,125.372,320.602,104.344z"/>
<g>
	<path style="fill:#78E3EC;" d="M320.602,261.802l-64.6,40.613c30.195,0,57.801-11.278,78.843-29.835
		C330.381,268.643,325.617,265.043,320.602,261.802z"/>
	<path style="fill:#78E3EC;" d="M256.001,63.733c0.002,0,64.601,40.613,64.601,40.613c5.016-3.243,9.78-6.841,14.243-10.777
		C313.802,75.011,286.196,63.733,256.001,63.733z"/>
</g>
<g>
	<path style="fill:#A0F6FA;" d="M256.003,63.733l33.463,54.887c11.137-3.259,21.598-8.11,31.134-14.275
		C304.822,79.464,281.715,63.734,256.003,63.733z"/>
	<path style="fill:#A0F6FA;" d="M289.467,247.526l-33.466,54.887c25.712,0,48.821-15.731,64.601-40.613
		C311.065,255.637,300.605,250.786,289.467,247.526z"/>
	<path style="fill:#A0F6FA;" d="M222.537,99.899l-45.386-6.328c-24.813,21.883-40.492,53.895-40.492,89.5s15.678,67.617,40.492,89.5
		l45.386-6.328l21.762-83.174L222.537,99.899z"/>
</g>
<path style="fill:#78E3EC;" d="M289.471,118.62h-66.933c-3.997,18.598-6.318,40.726-6.318,64.453s2.321,45.855,6.318,64.453h66.933
	c3.997-18.598,6.309-40.726,6.309-64.453S293.468,137.218,289.471,118.62z"/>
<g>
	<path style="fill:#F0FEFF;" d="M177.15,93.573c12.945,11.419,28.389,20.087,45.386,25.047l33.462-54.887
		C225.804,63.733,198.192,75.012,177.15,93.573z"/>
	<path style="fill:#F0FEFF;" d="M222.537,247.526c-16.998,4.961-32.442,13.628-45.386,25.047
		c21.042,18.561,48.654,29.84,78.849,29.84L222.537,247.526z"/>
</g>
<g>
	<path style="fill:#D0FBFD;" d="M255.999,63.733c14.031,0,26.386,21.893,33.471,54.887c-10.624,3.117-21.856,4.783-33.471,4.783
		c-11.616,0-22.848-1.666-33.462-4.783C229.623,85.626,241.978,63.733,255.999,63.733z"/>
	<path style="fill:#D0FBFD;" d="M289.471,247.526c-7.085,32.994-19.441,54.887-33.471,54.887c-14.021,0-26.376-21.893-33.462-54.887
		c10.614-3.117,21.847-4.783,33.462-4.783C267.616,242.744,278.847,244.409,289.471,247.526z"/>
</g>
<path style="fill:#2F5E88;" d="M256.001,55.407c-70.396,0-127.668,57.271-127.668,127.666S185.604,310.74,256.001,310.74
	c70.396,0,127.666-57.271,127.666-127.666S326.397,55.407,256.001,55.407z M366.704,174.747h-62.694
	c-0.397-17.455-2.044-34.75-4.907-50.535c12.69-4.563,24.65-11.139,35.409-19.55C352.748,122.92,364.673,147.477,366.704,174.747z
	 M276.218,264.788c-7.209,21.626-15.397,29.3-20.217,29.3s-13.008-7.673-20.217-29.3c-1.179-3.536-2.261-7.281-3.264-11.178
	c7.664-1.663,15.529-2.54,23.481-2.54c7.953,0,15.817,0.877,23.481,2.54C278.48,257.507,277.397,261.252,276.218,264.788z
	 M295.53,258.37c9.238,3.53,18.009,8.295,26.062,14.209c-11.38,8.363-24.404,14.61-38.492,18.157
	C288.138,282.047,292.288,270.962,295.53,258.37z M228.903,290.737c-14.088-3.547-27.113-9.795-38.493-18.157
	c8.054-5.914,16.824-10.679,26.063-14.209C219.715,270.962,223.864,282.047,228.903,290.737z M256.001,234.417
	c-9.141,0-18.185,0.989-26.994,2.899c-2.49-14.083-3.971-29.66-4.351-45.916h62.691c-0.38,16.256-1.861,31.833-4.351,45.916
	C274.187,235.406,265.143,234.417,256.001,234.417z M224.656,174.747c0.38-16.256,1.861-31.834,4.351-45.917
	c8.809,1.909,17.853,2.899,26.994,2.899s18.185-0.989,26.994-2.899c2.49,14.083,3.971,29.66,4.351,45.917H224.656z M235.784,101.359
	c7.209-21.626,15.397-29.3,20.217-29.3s13.008,7.673,20.217,29.3c1.178,3.535,2.261,7.28,3.264,11.178
	c-7.665,1.663-15.528,2.54-23.481,2.54c-7.953,0-15.817-0.877-23.481-2.54C233.523,108.64,234.606,104.894,235.784,101.359z
	 M216.473,107.776c-9.239-3.53-18.009-8.295-26.063-14.208c11.381-8.363,24.406-14.61,38.493-18.157
	C223.864,84.1,219.716,95.185,216.473,107.776z M283.1,75.411c14.088,3.547,27.112,9.795,38.493,18.157
	c-8.054,5.914-16.824,10.679-26.063,14.209C292.288,95.185,288.138,84.1,283.1,75.411z M177.489,104.662
	c10.76,8.411,22.719,14.987,35.409,19.55c-2.863,15.785-4.509,33.08-4.907,50.535h-62.694
	C147.329,147.477,159.255,122.92,177.489,104.662z M145.298,191.399h62.694c0.397,17.455,2.044,34.75,4.907,50.534
	c-12.69,4.563-24.651,11.14-35.409,19.551C159.255,243.227,147.329,218.669,145.298,191.399z M334.513,261.484
	c-10.76-8.411-22.719-14.987-35.409-19.551c2.863-15.785,4.509-33.08,4.907-50.535h62.694
	C364.673,218.67,352.748,243.228,334.513,261.484z"/>
<g>
	<path style="fill:#FFBE35;" d="M398.334,67.763h12.705c4.598,0,8.326-3.727,8.326-8.326s-3.728-8.326-8.326-8.326h-31.4
		c-0.067,0-0.131,0.009-0.198,0.01c-0.207,0.004-0.413,0.011-0.618,0.031c-0.147,0.014-0.289,0.041-0.433,0.062
		c-0.124,0.019-0.249,0.032-0.373,0.057c-0.153,0.03-0.301,0.072-0.451,0.11c-0.113,0.029-0.228,0.053-0.34,0.088
		c-0.144,0.043-0.283,0.097-0.423,0.148c-0.115,0.042-0.232,0.08-0.346,0.127c-0.13,0.053-0.255,0.117-0.382,0.177
		c-0.12,0.057-0.241,0.11-0.359,0.172c-0.119,0.063-0.233,0.137-0.349,0.205c-0.118,0.07-0.236,0.137-0.352,0.213
		c-0.124,0.083-0.242,0.175-0.361,0.265c-0.098,0.073-0.199,0.141-0.294,0.22c-0.199,0.163-0.389,0.335-0.571,0.516
		c-0.252,0.254-0.426,0.445-0.591,0.646c-0.079,0.097-0.148,0.198-0.222,0.298c-0.089,0.119-0.181,0.234-0.263,0.357
		c-0.079,0.119-0.148,0.241-0.221,0.363c-0.067,0.111-0.137,0.221-0.198,0.335c-0.067,0.124-0.123,0.252-0.183,0.38
		c-0.057,0.119-0.115,0.236-0.167,0.359c-0.051,0.124-0.092,0.251-0.138,0.376c-0.047,0.13-0.097,0.259-0.138,0.392
		c-0.039,0.128-0.067,0.256-0.099,0.385c-0.033,0.134-0.071,0.268-0.099,0.404c-0.03,0.15-0.048,0.302-0.069,0.454
		c-0.017,0.118-0.039,0.233-0.051,0.352c-0.027,0.274-0.041,0.55-0.041,0.826v31.397c0,4.599,3.728,8.326,8.326,8.326
		c4.598,0,8.326-3.727,8.326-8.326v-9.342c50.302,65.253,45.566,159.549-14.213,219.328
		c-54.268,54.27-138.067,64.481-203.782,24.837c-3.936-2.375-9.056-1.109-11.43,2.829c-2.376,3.938-1.109,9.054,2.829,11.43
		c28.471,17.176,61.514,26.227,94.844,26.227c6.956,0,13.926-0.394,20.868-1.191c41.453-4.759,78.954-22.865,108.446-52.356
		C452.383,245.74,456.65,139.635,398.334,67.763z"/>
	<path style="fill:#FFBE35;" d="M139.026,311.691c0.089-0.119,0.181-0.234,0.263-0.357c0.079-0.119,0.148-0.241,0.221-0.363
		c0.067-0.111,0.137-0.221,0.198-0.335c0.067-0.125,0.124-0.254,0.184-0.382c0.056-0.118,0.114-0.234,0.165-0.355
		c0.052-0.125,0.093-0.253,0.139-0.381c0.047-0.13,0.095-0.256,0.137-0.39c0.039-0.128,0.067-0.256,0.099-0.385
		c0.033-0.134,0.071-0.268,0.099-0.404c0.03-0.15,0.048-0.302,0.069-0.454c0.017-0.118,0.039-0.233,0.051-0.352
		c0.027-0.274,0.041-0.549,0.041-0.826v-31.397c0-4.599-3.728-8.326-8.326-8.326c-4.598,0-8.326,3.727-8.326,8.326v9.342
		c-50.302-65.253-45.566-159.549,14.213-219.328C192.52,11.055,276.317,0.842,342.032,40.487c3.939,2.378,9.056,1.11,11.43-2.829
		c2.376-3.938,1.109-9.054-2.829-11.43C316.22,5.468,275.127-3.425,234.923,1.191C193.47,5.951,155.97,24.056,126.476,53.548
		c-66.858,66.859-71.124,172.963-12.808,244.835h-12.705c-4.598,0-8.326,3.727-8.326,8.326s3.728,8.326,8.326,8.326h31.4
		c0.274,0,0.548-0.014,0.822-0.041c0.125-0.012,0.246-0.036,0.371-0.053c0.145-0.021,0.291-0.038,0.434-0.067
		c0.142-0.028,0.279-0.067,0.417-0.102c0.124-0.031,0.249-0.059,0.372-0.095c0.135-0.041,0.266-0.092,0.4-0.14
		c0.123-0.044,0.248-0.085,0.37-0.135c0.124-0.052,0.244-0.112,0.365-0.17c0.124-0.059,0.25-0.114,0.373-0.18
		c0.117-0.062,0.226-0.133,0.34-0.201c0.12-0.072,0.242-0.14,0.36-0.219c0.123-0.082,0.239-0.173,0.356-0.262
		c0.099-0.074,0.201-0.143,0.298-0.222c0.199-0.163,0.389-0.335,0.571-0.516c0.252-0.254,0.426-0.445,0.591-0.646
		C138.882,311.892,138.951,311.79,139.026,311.691z"/>
</g>
</svg>