<svg width="90" height="90" viewBox="0 0 90 90" fill="none" xmlns="http://www.w3.org/2000/svg">
<path d="M90 45C90 69.8528 69.8528 90 45 90C20.1472 90 0 69.8528 0 45C0 20.1472 20.1472 0 45 0C69.8528 0 90 20.1472 90 45Z" fill="#4352A4"/>
<path d="M60 45C60 53.2843 53.2843 60 45 60C36.7157 60 30 53.2843 30 45C30 36.7157 36.7157 30 45 30C53.2843 30 60 36.7157 60 45Z" fill="#A8ACCC"/>
<path d="M24.1705 34.6364V48.6562H26.4716V56.2841H23.9574V51H11.3011V34.6364H13.8153V48.6562H21.6562V34.6364H24.1705Z" fill="#130D5D"/>
<path d="M44.9489 24.3409C43.4148 24.3409 42.0938 23.9787 40.9858 23.2543C39.8778 22.5298 39.0256 21.532 38.429 20.2607C37.8324 18.9893 37.5341 17.5369 37.5341 15.9034C37.5341 14.2415 37.8395 12.7749 38.4503 11.5036C39.0682 10.2251 39.9276 9.22727 41.0284 8.50994C42.1364 7.78551 43.429 7.4233 44.9062 7.4233C46.0568 7.4233 47.0938 7.63636 48.017 8.0625C48.9403 8.48864 49.6967 9.08523 50.2862 9.85227C50.8757 10.6193 51.2415 11.5142 51.3835 12.5369H48.8693C48.6776 11.7912 48.2514 11.1307 47.5909 10.5554C46.9375 9.97301 46.0568 9.68182 44.9489 9.68182C43.9688 9.68182 43.1094 9.9375 42.3707 10.4489C41.6392 10.9531 41.0675 11.6669 40.6555 12.5902C40.2507 13.5064 40.0483 14.5824 40.0483 15.8182C40.0483 17.0824 40.2472 18.1832 40.6449 19.1207C41.0497 20.0582 41.6179 20.7862 42.3494 21.3047C43.0881 21.8232 43.9545 22.0824 44.9489 22.0824C45.6023 22.0824 46.1953 21.9687 46.728 21.7415C47.2607 21.5142 47.7116 21.1875 48.081 20.7614C48.4503 20.3352 48.7131 19.8239 48.8693 19.2273H51.3835C51.2415 20.1932 50.8899 21.0632 50.3288 21.8374C49.7749 22.6044 49.0398 23.2152 48.1236 23.6697C47.2145 24.1172 46.1563 24.3409 44.9489 24.3409Z" fill="#130D5D"/>
<path d="M44.9489 81.3409C43.4148 81.3409 42.0938 80.9787 40.9858 80.2543C39.8778 79.5298 39.0256 78.532 38.429 77.2607C37.8324 75.9893 37.5341 74.5369 37.5341 72.9034C37.5341 71.2415 37.8395 69.7749 38.4503 68.5035C39.0682 67.2251 39.9276 66.2273 41.0284 65.5099C42.1364 64.7855 43.429 64.4233 44.9062 64.4233C46.0568 64.4233 47.0938 64.6364 48.017 65.0625C48.9403 65.4886 49.6967 66.0852 50.2862 66.8523C50.8757 67.6193 51.2415 68.5142 51.3835 69.5369H48.8693C48.6776 68.7912 48.2514 68.1307 47.5909 67.5554C46.9375 66.973 46.0568 66.6818 44.9489 66.6818C43.9688 66.6818 43.1094 66.9375 42.3707 67.4489C41.6392 67.9531 41.0675 68.6669 40.6555 69.5902C40.2507 70.5064 40.0483 71.5824 40.0483 72.8182C40.0483 74.0824 40.2472 75.1832 40.6449 76.1207C41.0497 77.0582 41.6179 77.7862 42.3494 78.3047C43.0881 78.8232 43.9545 79.0824 44.9489 79.0824C45.6023 79.0824 46.1953 78.9688 46.728 78.7415C47.2607 78.5142 47.7116 78.1875 48.081 77.7614C48.4503 77.3352 48.7131 76.8239 48.8693 76.2273H51.3835C51.2415 77.1932 50.8899 78.0632 50.3288 78.8374C49.7749 79.6044 49.0398 80.2152 48.1236 80.6697C47.2145 81.1172 46.1563 81.3409 44.9489 81.3409Z" fill="#130D5D"/>
<path d="M74.9489 54.3409C73.4716 54.3409 72.1754 53.9893 71.0604 53.2862C69.9524 52.5831 69.0859 51.5994 68.4609 50.3352C67.843 49.071 67.5341 47.5937 67.5341 45.9034C67.5341 44.1989 67.843 42.7109 68.4609 41.4396C69.0859 40.1683 69.9524 39.1811 71.0604 38.478C72.1754 37.7749 73.4716 37.4233 74.9489 37.4233C76.4261 37.4233 77.7187 37.7749 78.8267 38.478C79.9418 39.1811 80.8082 40.1683 81.4261 41.4396C82.0511 42.7109 82.3636 44.1989 82.3636 45.9034C82.3636 47.5937 82.0511 49.071 81.4261 50.3352C80.8082 51.5994 79.9418 52.5831 78.8267 53.2862C77.7187 53.9893 76.4261 54.3409 74.9489 54.3409ZM74.9489 52.0824C76.071 52.0824 76.9943 51.7947 77.7188 51.2195C78.4432 50.6442 78.9794 49.8878 79.3274 48.9503C79.6754 48.0128 79.8494 46.9972 79.8494 45.9034C79.8494 44.8097 79.6754 43.7905 79.3274 42.8459C78.9794 41.9013 78.4432 41.1378 77.7188 40.5554C76.9943 39.973 76.071 39.6818 74.9489 39.6818C73.8267 39.6818 72.9034 39.973 72.179 40.5554C71.4545 41.1378 70.9183 41.9013 70.5703 42.8459C70.2223 43.7905 70.0483 44.8097 70.0483 45.9034C70.0483 46.9972 70.2223 48.0128 70.5703 48.9503C70.9183 49.8878 71.4545 50.6442 72.179 51.2195C72.9034 51.7947 73.8267 52.0824 74.9489 52.0824Z" fill="#130D5D"/>
</svg>
